<?xml version="1.0" encoding="utf-8"?>
<!-- Generator: Adobe Illustrator 20.0.0, SVG Export Plug-In . SVG Version: 6.00 Build 0)  -->
<svg version="1.1" id="Layer_1" xmlns="http://www.w3.org/2000/svg" xmlns:xlink="http://www.w3.org/1999/xlink" x="0px" y="0px"
	 viewBox="0 0 497.4 100.8" style="enable-background:new 0 0 497.4 100.8;" xml:space="preserve">
<style type="text/css">
	.st0{fill:#FFFFFF;}
</style>
<title>Asset 1</title>
<g id="Layer_2">
	<g id="Layer_1-2">
		<path class="st0" d="M134.4,84c2,0,2.9-1.1,3.1-3.1L143.9,0H163l20.5,47.4c2.4,5.8,4.9,13.3,4.9,13.3c0.3,0,2.8-7.6,5.2-13.3
			L214,0h19.1l6.4,80.9c0.1,2,1.1,3.1,3.1,3.1h4.4v15.6h-15.9c-6.6,0-8.8-2.8-9.4-9.5l-3.4-44.3c-0.3-5.1-0.4-10.3-0.1-15.4
			c-0.3,0-3.2,9.8-5.8,15.4l-16.5,36.7h-14.9l-16.5-36.7c-2.1-5.1-3.9-10.3-5.5-15.6c-0.3,0,0.1,9-0.4,15.6L155.4,90
			c-0.6,6.7-2.9,9.5-9.5,9.5H124V84H134.4z"/>
		<path class="st0" d="M303.7,54.2c-0.3-8.5-6.2-14.4-13.5-14.4c-9.1,0-15.6,5.5-17.5,14.4H303.7z M290.2,26
			c20.5,0,31.7,15,31.7,33.9c0,2.1-0.4,6.6-0.4,6.6h-49.3c1.4,12.6,10.6,19.2,21.4,19.2c11.5,0,20-8,20-8L321,90
			c-7.9,7-18.2,10.8-28.7,10.8c-23.7,0-38.4-17.1-38.4-37.4C253.9,41.4,268.7,26,290.2,26L290.2,26z"/>
		<path class="st0" d="M399.3,70.7c0,11.8,9.3,13.4,14.2,13.4c1.1,0,2.2-0.1,3.2-0.3v15.6c-1.8,0.3-3.6,0.4-5.5,0.4
			c-10,0-29.7-2.9-29.7-26.9V41.8h-25.7v28.9c0,11.8,9.2,13.4,14.1,13.4c1.1,0,2.2-0.1,3.2-0.3v15.6c-1.8,0.3-3.6,0.4-5.5,0.4
			c-10,0-29.7-2.9-29.7-26.9V41.8h-9.2V27.7h9.7V6.8h17.4v20.9h26.2V6.8h17.4v20.9h17.4v14.1h-17.4V70.7z"/>
		<path class="st0" d="M452,87c9.5,0,16.3-10.1,16.3-18.8v-1.7h-3.1c-9.2,0-24,1.3-24,11.2C441.2,82.5,444.7,87,452,87L452,87z
			 M465.7,54.3h2.2v-0.6c0-10.2-4.1-14-13.2-14c-3.2,0-9.5,0.8-9.5,4.8v3.8h-16.5v-7.6c0-13.3,18.8-14.7,26.2-14.7
			c23.8,0,30.8,12.5,30.8,28.5v26.6c-0.2,1.5,1,2.9,2.5,3.1c0.2,0,0.4,0,0.6,0h8.6v15h-19c-6.6,0-9.1-3.6-9.1-7.8
			c0-1.8,0.1-3.1,0.1-3.1h-0.3c0,0-5.5,12.6-21.6,12.6c-12.8,0-24.4-8-24.4-22.3C423.2,56.1,454,54.3,465.7,54.3L465.7,54.3z"/>
		<path class="st0" d="M75.6,75.9h20.6c-1,1.9-2,3.9-3,5.8c-1.6,3.1-3.4,6.2-5.2,9.2C87.5,92,86.8,93.1,86,94
			c-1.1,1.2-2.4,2.3-3.8,3.1c-1.2,0.7-2.4,1.2-3.8,1.6c-1.1,0.3-2.3,0.5-3.4,0.5l-0.2,0.1H34.7l-0.2-0.1c-0.9,0-1.9-0.2-2.8-0.4
			c-1.8-0.4-3.6-1.2-5.1-2.2c-2-1.3-3.6-3.1-4.8-5.1c-3-5.2-6-10.3-9-15.5h20.9c3.7,0,5.5-1.7,5.8-5.7l1.6-21.8
			c0-0.4,0.1-0.8,0.1-1.2c0.2,0.6,0.4,1.1,0.7,1.6l8.5,18.7h8.8l8.4-18.7c0.2-0.5,0.4-1,0.7-1.6c0,0.4,0,0.8,0.1,1.2l1.6,21.8
			C70.2,74.2,71.9,75.9,75.6,75.9z"/>
		<path class="st0" d="M108.4,49.3v0.8c0,0.1,0,0.2-0.1,0.3c0,1.2-0.2,2.4-0.6,3.5c-0.4,1.3-0.9,2.5-1.6,3.6c-1,1.8-2.1,3.6-3.1,5.4
			l-0.1,0.2l-1.6,2.8H81.3c-0.3,0-0.3,0-0.4-0.5l-3.2-40.8H66.5l-10.4,24c-0.5,1.2-1,2.6-1.4,3.7c-0.4-1.2-0.9-2.5-1.4-3.8l-1.3-3.1
			l-9-20.9H31.7l-3.3,40.8c0,0.5-0.1,0.5-0.4,0.5h-21l-1.7-2.9l-3.3-5.7c-0.9-1.5-1.5-3.1-1.8-4.8c-0.1-0.7-0.2-1.4-0.3-2.2
			c0-0.1-0.1-0.2-0.1-0.3v-1c0-0.1,0-0.1,0.1-0.2c0.1-0.7,0.2-1.4,0.3-2.1c0.3-1.6,0.8-3.1,1.6-4.5c1-1.7,2-3.4,3-5.2L21.7,8.2
			c0.4-0.7,0.8-1.4,1.3-2c1.9-2.4,4.4-4.2,7.3-5.1c1.3-0.4,2.6-0.7,4-0.7c0.1,0,0.1,0,0.2,0H74c0.1,0,0.2,0,0.2,0
			c1.1,0,2.1,0.2,3.1,0.5c2.6,0.7,5,2,6.8,3.9c1,1,1.9,2.2,2.7,3.5c3.1,5.3,6.2,10.7,9.3,16l9.4,16.2c0.6,1,1.2,2.1,1.7,3.2
			c0.7,1.6,1.1,3.3,1.2,5C108.4,49,108.4,49.1,108.4,49.3z"/>
	</g>
</g>
</svg>
