<?xml version="1.0" encoding="utf-8"?>
<!-- Generator: Adobe Illustrator 20.0.0, SVG Export Plug-In . SVG Version: 6.00 Build 0)  -->
<svg version="1.1" id="Layer_1" xmlns="http://www.w3.org/2000/svg" xmlns:xlink="http://www.w3.org/1999/xlink" x="0px" y="0px"
	 viewBox="0 0 108.4 100.8" style="enable-background:new 0 0 108.4 100.8;" xml:space="preserve">
<style type="text/css">
	.st0{fill:#4C5AFC;}
</style>
<title>Asset 1</title>
<g id="Layer_2">
	<g id="Layer_1-2">
		<path class="st0" d="M75.6,75.9h20.6c-1,1.9-2,3.9-3,5.8c-1.6,3.1-3.4,6.2-5.2,9.2c-0.5,1.1-1.2,2.2-2,3.1
			c-1.1,1.2-2.4,2.3-3.8,3.1c-1.2,0.7-2.4,1.2-3.8,1.6c-1.1,0.3-2.3,0.5-3.4,0.5l-0.2,0.1H34.7l-0.2-0.1c-0.9,0-1.9-0.2-2.8-0.4
			c-1.8-0.4-3.6-1.2-5.1-2.2c-2-1.3-3.6-3.1-4.8-5.1c-3-5.2-6-10.3-9-15.5h20.9c3.7,0,5.5-1.7,5.8-5.7l1.6-21.8
			c0-0.4,0.1-0.8,0.1-1.2c0.2,0.6,0.4,1.1,0.7,1.6l8.5,18.7h8.8l8.4-18.7c0.2-0.5,0.4-1,0.7-1.6c0,0.4,0,0.8,0.1,1.2L70,70.3
			C70.2,74.2,71.9,75.9,75.6,75.9z"/>
		<path class="st0" d="M108.4,49.3v0.8c0,0.1,0,0.2-0.1,0.3c0,1.2-0.2,2.4-0.6,3.5c-0.4,1.3-0.9,2.5-1.6,3.6c-1,1.8-2.1,3.6-3.1,5.4
			l-0.1,0.2l-1.6,2.8h-20c-0.3,0-0.3,0-0.4-0.5l-3.2-40.8H66.5l-10.4,24c-0.5,1.2-1,2.6-1.4,3.7c-0.4-1.2-0.9-2.5-1.4-3.8L52,45.4
			l-9-20.9H31.7l-3.3,40.8c0,0.5-0.1,0.5-0.4,0.5H7l-1.7-2.9L2,57.2c-0.9-1.5-1.5-3.1-1.8-4.8C0.1,51.7,0,51-0.1,50.2
			c0-0.1-0.1-0.2-0.1-0.3v-1c0-0.1,0-0.1,0.1-0.2C0,48,0.1,47.3,0.2,46.6C0.5,45,1,43.5,1.8,42.1c1-1.7,2-3.4,3-5.2L21.7,8.2
			c0.4-0.7,0.8-1.4,1.3-2c1.9-2.4,4.4-4.2,7.3-5.1c1.3-0.4,2.6-0.7,4-0.7c0.1,0,0.1,0,0.2,0H74c0.1,0,0.2,0,0.2,0
			c1.1,0,2.1,0.2,3.1,0.5c2.6,0.7,5,2,6.8,3.9c1,1,1.9,2.2,2.7,3.5c3.1,5.3,6.2,10.7,9.3,16l9.4,16.2c0.6,1,1.2,2.1,1.7,3.2
			c0.7,1.6,1.1,3.3,1.2,5C108.4,49,108.4,49.1,108.4,49.3z"/>
	</g>
</g>
</svg>
